<svg xmlns="http://www.w3.org/2000/svg" style="display:none">
  <symbol id="chevron-down" viewBox="0 0 24 24" fill="currentColor">
    <path d="M6.7 8.7a1 1 0 0 1 1.4 0L12 12.6l3.9-3.9a1 1 0 1 1 1.4 1.4l-4.6 4.6a1 1 0 0 1-1.4 0L6.7 10.1a1 1 0 0 1 0-1.4Z"/>
  </symbol>
  <symbol id="chevron-left" viewBox="0 0 24 24" fill="currentColor">
    <path d="M15.3 5.7a1 1 0 0 1 0 1.4L10.4 12l4.9 4.9a1 1 0 1 1-1.4 1.4l-5.6-5.6a1 1 0 0 1 0-1.4l5.6-5.6a1 1 0 0 1 1.4 0Z"/>
  </symbol>
  <symbol id="chevron-right" viewBox="0 0 24 24" fill="currentColor">
    <path d="M8.7 5.7a1 1 0 0 1 1.4 0l5.6 5.6a1 1 0 0 1 0 1.4l-5.6 5.6a1 1 0 0 1-1.4-1.4L13.6 12 8.7 7.1a1 1 0 0 1 0-1.4Z"/>
  </symbol>
  <symbol id="sun" viewBox="0 0 24 24" fill="currentColor">
    <path d="M12 2a1 1 0 0 1 1 1v1a1 1 0 1 1-2 0V3a1 1 0 0 1 1-1Zm0 15a5 5 0 1 0 0-10 5 5 0 0 0 0 10Zm0 2a1 1 0 0 1 1 1v1a1 1 0 1 1-2 0v-1a1 1 0 0 1 1-1ZM4.22 4.22a1 1 0 0 1 1.42 0l.7.7a1 1 0 0 1-1.4 1.42l-.71-.7a1 1 0 0 1 0-1.42Zm12.44 12.44a1 1 0 0 1 1.42 0l.7.7a1 1 0 1 1-1.4 1.42l-.71-.7a1 1 0 0 1 0-1.42ZM2 12a1 1 0 0 1 1-1h1a1 1 0 1 1 0 2H3a1 1 0 0 1-1-1Zm17 0a1 1 0 0 1 1-1h1a1 1 0 1 1 0 2h-1a1 1 0 0 1-1-1ZM6.34 17.66a1 1 0 0 1 0-1.42l.7-.7a1 1 0 1 1 1.42 1.4l-.7.71a1 1 0 0 1-1.42 0Zm11.32-11.32a1 1 0 0 1 0-1.42l.7-.7a1 1 0 1 1 1.42 1.4l-.7.71a1 1 0 0 1-1.42 0Z"/>
  </symbol>
  <symbol id="moon" viewBox="0 0 24 24" fill="currentColor">
    <path d="M12 3a9 9 0 1 0 9 9c0-.46-.04-.92-.1-1.36a5.389 5.389 0 0 1-4.4 2.26 5.403 5.403 0 0 1-3.14-9.8c-.44-.06-.9-.1-1.36-.1Z"/>
  </symbol>
  <symbol id="user" viewBox="0 0 24 24" fill="currentColor">
    <path d="M12 2a5 5 0 1 0 0 10 5 5 0 0 0 0-10Zm0 12c-5.33 0-8 2.67-8 4v2h16v-2c0-1.33-2.67-4-8-4Z"/>
  </symbol>
  <symbol id="login" viewBox="0 0 24 24" fill="currentColor">
    <path d="M11 7 9.6 8.4l2.6 2.6H2v2h10.2l-2.6 2.6L11 17l5-5-5-5Zm9 12h-8v2h8c1.1 0 2-.9 2-2V5c0-1.1-.9-2-2-2h-8v2h8v14Z"/>
  </symbol>
  <symbol id="logout" viewBox="0 0 24 24" fill="currentColor">
    <path d="M17 7l-1.4 1.4 2.6 2.6H9v2h9.2l-2.6 2.6L17 17l5-5-5-5ZM4 5h8V3H4c-1.1 0-2 .9-2 2v14c0 1.1.9 2 2 2h8v-2H4V5Z"/>
  </symbol>
  <symbol id="menu" viewBox="0 0 24 24" fill="currentColor">
    <path d="M3 6h18v2H3V6Zm0 5h18v2H3v-2Zm0 5h18v2H3v-2Z"/>
  </symbol>
  <symbol id="x" viewBox="0 0 24 24" fill="currentColor">
    <path d="M18.3 5.7a1 1 0 0 1 0 1.4L13.4 12l4.9 4.9a1 1 0 1 1-1.4 1.4L12 13.4l-4.9 4.9a1 1 0 1 1-1.4-1.4L10.6 12 5.7 7.1a1 1 0 0 1 1.4-1.4L12 10.6l4.9-4.9a1 1 0 0 1 1.4 0Z"/>
  </symbol>
  <symbol id="home" viewBox="0 0 24 24" fill="currentColor">
    <path d="M12 3l-10 9h3v9h6v-6h2v6h6v-9h3l-10-9z"/>
  </symbol>
  <symbol id="trophy" viewBox="0 0 24 24" fill="currentColor">
    <path d="M6 3h12v5c0 3.31-2.69 6-6 6s-6-2.69-6-6V3zm-2 3H2v2c0 2.21 1.79 4 4 4v-6zm16 0h2v2c0 2.21-1.79 4-4 4V6h2zM12 15c1.66 0 3-1.34 3-3h-6c0 1.66 1.34 3 3 3zm-2 2v4h4v-4h-4z"/>
  </symbol>
  <symbol id="info" viewBox="0 0 24 24" fill="currentColor">
    <path d="M12 2C6.48 2 2 6.48 2 12s4.48 10 10 10 10-4.48 10-10S17.52 2 12 2zm1 15h-2v-6h2v6zm0-8h-2V7h2v2z"/>
  </symbol>
  <symbol id="mail" viewBox="0 0 24 24" fill="currentColor">
    <path d="M20 4H4c-1.1 0-2 .9-2 2v12c0 1.1.9 2 2 2h16c1.1 0 2-.9 2-2V6c0-1.1-.9-2-2-2zm0 4l-8 5-8-5V6l8 5 8-5v2z"/>
  </symbol>
  <symbol id="plus" viewBox="0 0 24 24" fill="currentColor">
    <path d="M19 13h-6v6h-2v-6H5v-2h6V5h2v6h6v2z"/>
  </symbol>
  <symbol id="tag" viewBox="0 0 24 24" fill="currentColor">
    <path d="M21.41 11.58l-9-9C12.05 2.22 11.55 2 11 2H4c-1.1 0-2 .9-2 2v7c0 .55.22 1.05.59 1.42l9 9c.36.36.86.58 1.41.58.55 0 1.05-.22 1.41-.59l7-7c.37-.36.59-.86.59-1.41 0-.55-.23-1.06-.59-1.42zM5.5 7C4.67 7 4 6.33 4 5.5S4.67 4 5.5 4 7 4.67 7 5.5 6.33 7 5.5 7z"/>
  </symbol>
</svg>
