<svg xmlns="http://www.w3.org/2000/svg" style="display:none">
  <symbol id="chevron-down" viewBox="0 0 24 24" fill="currentColor">
    <path d="M6.7 8.7a1 1 0 0 1 1.4 0L12 12.6l3.9-3.9a1 1 0 1 1 1.4 1.4l-4.6 4.6a1 1 0 0 1-1.4 0L6.7 10.1a1 1 0 0 1 0-1.4Z"/>
  </symbol>
  <symbol id="chevron-left" viewBox="0 0 24 24" fill="currentColor">
    <path d="M15.3 5.7a1 1 0 0 1 0 1.4L10.4 12l4.9 4.9a1 1 0 1 1-1.4 1.4l-5.6-5.6a1 1 0 0 1 0-1.4l5.6-5.6a1 1 0 0 1 1.4 0Z"/>
  </symbol>
  <symbol id="chevron-right" viewBox="0 0 24 24" fill="currentColor">
    <path d="M8.7 5.7a1 1 0 0 1 1.4 0l5.6 5.6a1 1 0 0 1 0 1.4l-5.6 5.6a1 1 0 0 1-1.4-1.4L13.6 12 8.7 7.1a1 1 0 0 1 0-1.4Z"/>
  </symbol>
  <symbol id="sun" viewBox="0 0 24 24" fill="currentColor">
    <path d="M12 2a1 1 0 0 1 1 1v1a1 1 0 1 1-2 0V3a1 1 0 0 1 1-1Zm0 15a5 5 0 1 0 0-10 5 5 0 0 0 0 10Zm0 2a1 1 0 0 1 1 1v1a1 1 0 1 1-2 0v-1a1 1 0 0 1 1-1ZM4.22 4.22a1 1 0 0 1 1.42 0l.7.7a1 1 0 0 1-1.4 1.42l-.71-.7a1 1 0 0 1 0-1.42Zm12.44 12.44a1 1 0 0 1 1.42 0l.7.7a1 1 0 1 1-1.4 1.42l-.71-.7a1 1 0 0 1 0-1.42ZM2 12a1 1 0 0 1 1-1h1a1 1 0 1 1 0 2H3a1 1 0 0 1-1-1Zm17 0a1 1 0 0 1 1-1h1a1 1 0 1 1 0 2h-1a1 1 0 0 1-1-1ZM6.34 17.66a1 1 0 0 1 0-1.42l.7-.7a1 1 0 1 1 1.42 1.4l-.7.71a1 1 0 0 1-1.42 0Zm11.32-11.32a1 1 0 0 1 0-1.42l.7-.7a1 1 0 1 1 1.42 1.4l-.7.71a1 1 0 0 1-1.42 0Z"/>
  </symbol>
  <symbol id="moon" viewBox="0 0 24 24" fill="currentColor">
    <path d="M12 3a9 9 0 1 0 9 9c0-.46-.04-.92-.1-1.36a5.389 5.389 0 0 1-4.4 2.26 5.403 5.403 0 0 1-3.14-9.8c-.44-.06-.9-.1-1.36-.1Z"/>
  </symbol>
  <symbol id="user" viewBox="0 0 24 24" fill="currentColor">
    <path d="M12 2a5 5 0 1 0 0 10 5 5 0 0 0 0-10Zm0 12c-5.33 0-8 2.67-8 4v2h16v-2c0-1.33-2.67-4-8-4Z"/>
  </symbol>
  <symbol id="login" viewBox="0 0 24 24" fill="currentColor">
    <path d="M11 7 9.6 8.4l2.6 2.6H2v2h10.2l-2.6 2.6L11 17l5-5-5-5Zm9 12h-8v2h8c1.1 0 2-.9 2-2V5c0-1.1-.9-2-2-2h-8v2h8v14Z"/>
  </symbol>
  <symbol id="logout" viewBox="0 0 24 24" fill="currentColor">
    <path d="M17 7l-1.4 1.4 2.6 2.6H9v2h9.2l-2.6 2.6L17 17l5-5-5-5ZM4 5h8V3H4c-1.1 0-2 .9-2 2v14c0 1.1.9 2 2 2h8v-2H4V5Z"/>
  </symbol>
</svg>
